<mxfile host="65bd71144e">
    <diagram id="GkL5McwvtGpUYPM0mVcx" name="Page-1">
        <mxGraphModel dx="1700" dy="747" grid="1" gridSize="10" guides="1" tooltips="1" connect="1" arrows="1" fold="1" page="1" pageScale="1" pageWidth="850" pageHeight="1100" background="#ffffff" math="0" shadow="0">
            <root>
                <mxCell id="0"/>
                <mxCell id="1" parent="0"/>
                <mxCell id="u5nUh0pqHLmzVWJ_fwHD-28" value="Local Machine" style="rounded=0;whiteSpace=wrap;html=1;align=left;verticalAlign=top;spacingLeft=5;fillColor=default;" parent="1" vertex="1">
                    <mxGeometry x="-60" y="550" width="310" height="430" as="geometry"/>
                </mxCell>
                <mxCell id="u5nUh0pqHLmzVWJ_fwHD-73" style="edgeStyle=none;html=1;entryX=1;entryY=0.5;entryDx=0;entryDy=0;" parent="1" target="48" edge="1">
                    <mxGeometry relative="1" as="geometry">
                        <mxPoint x="280" y="727" as="sourcePoint"/>
                        <Array as="points">
                            <mxPoint x="230" y="727"/>
                            <mxPoint x="230" y="708"/>
                        </Array>
                    </mxGeometry>
                </mxCell>
                <mxCell id="u5nUh0pqHLmzVWJ_fwHD-74" value="produces" style="edgeLabel;html=1;align=center;verticalAlign=middle;resizable=0;points=[];" parent="u5nUh0pqHLmzVWJ_fwHD-73" connectable="0" vertex="1">
                    <mxGeometry x="-0.4557" y="-1" relative="1" as="geometry">
                        <mxPoint x="-44" y="-20" as="offset"/>
                    </mxGeometry>
                </mxCell>
                <mxCell id="u5nUh0pqHLmzVWJ_fwHD-75" style="edgeStyle=none;html=1;entryX=1;entryY=0.5;entryDx=0;entryDy=0;exitX=0.5;exitY=0.5;exitDx=0;exitDy=0;exitPerimeter=0;" parent="1" source="3" target="32" edge="1">
                    <mxGeometry relative="1" as="geometry">
                        <Array as="points">
                            <mxPoint x="230" y="727"/>
                            <mxPoint x="230" y="609"/>
                        </Array>
                        <mxPoint x="230" y="720" as="sourcePoint"/>
                    </mxGeometry>
                </mxCell>
                <mxCell id="u5nUh0pqHLmzVWJ_fwHD-76" value="has" style="edgeLabel;html=1;align=center;verticalAlign=middle;resizable=0;points=[];" parent="u5nUh0pqHLmzVWJ_fwHD-75" connectable="0" vertex="1">
                    <mxGeometry x="-0.5143" y="-1" relative="1" as="geometry">
                        <mxPoint x="-41" y="-116" as="offset"/>
                    </mxGeometry>
                </mxCell>
                <mxCell id="73" style="edgeStyle=none;html=1;fontColor=#FFFFFF;entryX=1;entryY=0.5;entryDx=0;entryDy=0;" parent="1" target="38" edge="1">
                    <mxGeometry relative="1" as="geometry">
                        <Array as="points">
                            <mxPoint x="230" y="727"/>
                            <mxPoint x="230" y="809"/>
                        </Array>
                        <mxPoint x="420" y="160" as="targetPoint"/>
                        <mxPoint x="280" y="727" as="sourcePoint"/>
                    </mxGeometry>
                </mxCell>
                <mxCell id="u5nUh0pqHLmzVWJ_fwHD-78" value="defines" style="edgeLabel;html=1;align=center;verticalAlign=middle;resizable=0;points=[];" parent="73" connectable="0" vertex="1">
                    <mxGeometry x="-0.5894" y="1" relative="1" as="geometry">
                        <mxPoint x="-43" y="79" as="offset"/>
                    </mxGeometry>
                </mxCell>
                <mxCell id="u5nUh0pqHLmzVWJ_fwHD-79" style="edgeStyle=none;html=1;entryX=1;entryY=0.25;entryDx=0;entryDy=0;exitX=0.5;exitY=0.5;exitDx=0;exitDy=0;exitPerimeter=0;" parent="1" source="3" target="28" edge="1">
                    <mxGeometry relative="1" as="geometry">
                        <Array as="points">
                            <mxPoint x="230" y="727"/>
                            <mxPoint x="230" y="895"/>
                        </Array>
                        <mxPoint x="280" y="720" as="sourcePoint"/>
                    </mxGeometry>
                </mxCell>
                <mxCell id="u5nUh0pqHLmzVWJ_fwHD-80" value="uses" style="edgeLabel;html=1;align=center;verticalAlign=middle;resizable=0;points=[];" parent="u5nUh0pqHLmzVWJ_fwHD-79" connectable="0" vertex="1">
                    <mxGeometry x="-0.1229" y="-4" relative="1" as="geometry">
                        <mxPoint x="-36" y="88" as="offset"/>
                    </mxGeometry>
                </mxCell>
                <mxCell id="3" value="USER" style="shape=umlActor;verticalLabelPosition=bottom;verticalAlign=top;html=1;outlineConnect=0;" parent="1" vertex="1">
                    <mxGeometry x="275.56" y="696.85" width="30" height="60" as="geometry"/>
                </mxCell>
                <mxCell id="u5nUh0pqHLmzVWJ_fwHD-16" value="Kubernetes" style="rounded=0;whiteSpace=wrap;html=1;align=left;verticalAlign=top;spacingLeft=5;glass=0;strokeWidth=1;perimeterSpacing=0;fillColor=default;" parent="1" vertex="1">
                    <mxGeometry x="335" y="550" width="475" height="430" as="geometry"/>
                </mxCell>
                <mxCell id="u5nUh0pqHLmzVWJ_fwHD-6" value="&lt;font style=&quot;&quot; color=&quot;#ffffff&quot;&gt;USERPC&lt;/font&gt;" style="fontColor=#0066CC;verticalAlign=top;verticalLabelPosition=bottom;labelPosition=center;align=center;html=1;outlineConnect=0;fillColor=#CCCCCC;strokeColor=#6881B3;gradientColor=none;gradientDirection=north;strokeWidth=2;shape=mxgraph.networks.pc;" parent="1" vertex="1">
                    <mxGeometry x="180" y="940" width="100" height="70" as="geometry"/>
                </mxCell>
                <mxCell id="21" value="" style="group" parent="1" connectable="0" vertex="1">
                    <mxGeometry x="622.9977777777777" y="712" width="146.22222222222223" height="98" as="geometry"/>
                </mxCell>
                <mxCell id="18" value="" style="group" parent="21" connectable="0" vertex="1">
                    <mxGeometry width="118.22222222222223" height="80" as="geometry"/>
                </mxCell>
                <mxCell id="u5nUh0pqHLmzVWJ_fwHD-24" value="JOB" style="rounded=0;whiteSpace=wrap;html=1;" parent="18" vertex="1">
                    <mxGeometry width="101.33333333333333" height="60" as="geometry"/>
                </mxCell>
                <mxCell id="u5nUh0pqHLmzVWJ_fwHD-26" value="JOB" style="rounded=0;whiteSpace=wrap;html=1;" parent="18" vertex="1">
                    <mxGeometry x="8.444444444444445" y="10" width="101.33333333333333" height="60" as="geometry"/>
                </mxCell>
                <mxCell id="u5nUh0pqHLmzVWJ_fwHD-27" value="JOB" style="rounded=0;whiteSpace=wrap;html=1;" parent="18" vertex="1">
                    <mxGeometry x="16.88888888888889" y="20" width="101.33333333333333" height="60" as="geometry"/>
                </mxCell>
                <mxCell id="u5nUh0pqHLmzVWJ_fwHD-13" value="" style="sketch=0;html=1;dashed=0;whitespace=wrap;fillColor=#2875E2;strokeColor=#ffffff;points=[[0.005,0.63,0],[0.1,0.2,0],[0.9,0.2,0],[0.5,0,0],[0.995,0.63,0],[0.72,0.99,0],[0.5,1,0],[0.28,0.99,0]];verticalLabelPosition=bottom;align=center;verticalAlign=top;shape=mxgraph.kubernetes.icon;prIcon=job" parent="21" vertex="1">
                    <mxGeometry x="86.22222222222223" y="50" width="60" height="48" as="geometry"/>
                </mxCell>
                <mxCell id="24" value="" style="group" parent="1" connectable="0" vertex="1">
                    <mxGeometry x="623.0022222222221" y="568" width="129.1177777777778" height="84" as="geometry"/>
                </mxCell>
                <mxCell id="u5nUh0pqHLmzVWJ_fwHD-25" value="Registry" style="rounded=0;whiteSpace=wrap;html=1;" parent="24" vertex="1">
                    <mxGeometry width="101.33333333333333" height="60" as="geometry"/>
                </mxCell>
                <mxCell id="23" value="" style="editableCssRules=.*;shape=image;verticalLabelPosition=bottom;labelBackgroundColor=#ffffff;verticalAlign=top;aspect=fixed;imageAspect=0;image=data:image/svg+xml,PHN2ZyB4bWxucz0iaHR0cDovL3d3dy53My5vcmcvMjAwMC9zdmciIHhtbG5zOnY9Imh0dHBzOi8vdmVjdGEuaW8vbmFubyIgd2lkdGg9IjM3Ny4xNTkzMDIxNjAyNjMwNSIgaGVpZ2h0PSIzMzYuMTYyNDk5MDAzMzEwOCIgdmlld0JveD0iLTAuMDU4MDAwMDA1NzgxNjUwNTQgMC4xMTI5OTk5OTgwMzMwNDY3MiA5OS43OTAwMDA5MTU1MjczNCA4OC45NDMwMDA3OTM0NTcwMyI+JiN4YTs8c3R5bGUgdHlwZT0idGV4dC9jc3MiPiYjeGE7CS5zdDB7ZmlsbDojNjY5ZGY2O30mI3hhOwkuc3Qxe2ZpbGw6I2FlY2JmYTt9JiN4YTsJLnN0MntmaWxsOiM0Mjg1ZjQ7fSYjeGE7PC9zdHlsZT4mI3hhOwk8cGF0aCBjbGFzcz0ic3QwIiBkPSJNNTMuMjQzIDYyLjA5VjQ3LjA5NGwxMy4yMDEgOC40MTZ2MTUuMDM4em0tMzMuMDIxIDBWNDcuMDk0bDEzLjIwMSA4LjQxNnYxNS4wMzh6bTE2LjUxMS0zMi4yODVWMTQuODFsMTMuMjAxIDguNDE2djE1LjAzOHptNjIuOTk5IDMzLjk2VjI1LjQwM2wtOS41NjItMS44ODR2NDIuMTMxem0tOTkuNzg4IDBWMjUuNDAzbDkuNTYyLTEuODg0djQyLjEzMXoiLz4mI3hhOwk8cGF0aCBjbGFzcz0ic3QxIiBkPSJNNTMuMTg1IDQ3LjA5NGwxMy4yNTgtOC4yODcgMTMuMDE2IDguMjM0LTEzLjAxNiA4LjQ2OXptLTMzLjAyMSAwbDEzLjI1OC04LjI4NyAxMy4wMTYgOC4yMzQtMTMuMDE2IDguNDY5ek0zNi42NzUgMTQuODFsMTMuMjU4LTguMjg3IDEzLjAxNiA4LjIzNC0xMy4wMTYgOC40Njl6bTYzLjA1NiA0OC45NTZ2MTIuMjE3TDc3LjAxIDg5LjA1NVY3Ny43NTJ6bTAtMzguMzYzVjEzLjE4Nkw3Ny4wMS4xMTN2MTEuMzAzek0tLjA1OCA2My43NjZ2MTIuMjE3bDIyLjcyMSAxMy4wNzNWNzcuNzUyem0wLTM4LjM2M1YxMy4xODZMMjIuNjYzLjExM3YxMS4zMDN6Ii8+JiN4YTsJPHBhdGggY2xhc3M9InN0MiIgZD0iTTY2LjQ0NCA3MC41NDdWNTUuNTFsMTMuMDE2LTguNDY5djE1LjR6bS0zMy4wMjEgMFY1NS41MWwxMy4wMTYtOC40Njl2MTUuNHptMTYuNTExLTMyLjI4NVYyMy4yMjVsMTMuMDE2LTguNDY5djE1LjR6bTQ5Ljc5OCAyNS41MDNsLTkuNTYyIDUuODh2LTMuOTk2em0wLTM4LjM2M2wtOS41NjItNS44OHYzLjk5NnpNLS4wNTggNjMuNzY2bDkuNTYyIDUuODh2LTMuOTk2em0wLTM4LjM2M2w5LjU2Mi01Ljg4djMuOTk2eiIvPiYjeGE7PC9zdmc+;" parent="24" vertex="1">
                    <mxGeometry x="89.99777777777777" y="36" width="53.34" height="48" as="geometry"/>
                </mxCell>
                <mxCell id="u5nUh0pqHLmzVWJ_fwHD-34" value="" style="group" parent="1" connectable="0" vertex="1">
                    <mxGeometry x="447.00222222222214" y="712.85" width="120.02777777777777" height="90" as="geometry"/>
                </mxCell>
                <mxCell id="16" value="Storage Bucket" style="rounded=0;whiteSpace=wrap;html=1;" parent="u5nUh0pqHLmzVWJ_fwHD-34" vertex="1">
                    <mxGeometry y="-1" width="101.33333333333333" height="60" as="geometry"/>
                </mxCell>
                <mxCell id="8" value="" style="verticalLabelPosition=bottom;html=1;verticalAlign=top;align=center;strokeColor=none;fillColor=#00BEF2;shape=mxgraph.azure.cloud_service_package_file;" parent="u5nUh0pqHLmzVWJ_fwHD-34" vertex="1">
                    <mxGeometry x="77.52777777777777" y="40" width="42.5" height="50" as="geometry"/>
                </mxCell>
                <mxCell id="30" value="" style="group" parent="1" vertex="1" connectable="0">
                    <mxGeometry x="40.00222222222237" y="880" width="126.5577777777778" height="90" as="geometry"/>
                </mxCell>
                <mxCell id="28" value="execDAT-CLI" style="rounded=0;whiteSpace=wrap;html=1;" parent="30" vertex="1">
                    <mxGeometry width="101.33333333333333" height="60" as="geometry"/>
                </mxCell>
                <mxCell id="19" value="" style="sketch=0;points=[[0,0,0],[0.25,0,0],[0.5,0,0],[0.75,0,0],[1,0,0],[0,1,0],[0.25,1,0],[0.5,1,0],[0.75,1,0],[1,1,0],[0,0.25,0],[0,0.5,0],[0,0.75,0],[1,0.25,0],[1,0.5,0],[1,0.75,0]];outlineConnect=0;fontColor=#232F3E;gradientColor=#4D72F3;gradientDirection=north;fillColor=#3334B9;strokeColor=#ffffff;dashed=0;verticalLabelPosition=bottom;verticalAlign=top;align=center;html=1;fontSize=12;fontStyle=0;aspect=fixed;shape=mxgraph.aws4.resourceIcon;resIcon=mxgraph.aws4.command_line_interface;" parent="30" vertex="1">
                    <mxGeometry x="76.5577777777778" y="40" width="50" height="50" as="geometry"/>
                </mxCell>
                <mxCell id="31" value="" style="group;fillColor=none;" parent="1" vertex="1" connectable="0">
                    <mxGeometry x="40.00222222222226" y="579" width="126.5577777777778" height="95" as="geometry"/>
                </mxCell>
                <mxCell id="32" value="Data" style="rounded=0;whiteSpace=wrap;html=1;" parent="31" vertex="1">
                    <mxGeometry width="101.33333333333333" height="60" as="geometry"/>
                </mxCell>
                <mxCell id="52" value="" style="aspect=fixed;perimeter=ellipsePerimeter;html=1;align=center;shadow=0;dashed=0;spacingTop=3;image;image=img/lib/active_directory/database_server.svg;" parent="31" vertex="1">
                    <mxGeometry x="79.99777777777774" y="35" width="41" height="50" as="geometry"/>
                </mxCell>
                <mxCell id="37" value="" style="group" parent="1" vertex="1" connectable="0">
                    <mxGeometry x="40" y="778" width="130" height="90" as="geometry"/>
                </mxCell>
                <mxCell id="38" value="Requirements Definition" style="rounded=0;whiteSpace=wrap;html=1;" parent="37" vertex="1">
                    <mxGeometry y="1" width="101.3351126406911" height="60.00000000000001" as="geometry"/>
                </mxCell>
                <mxCell id="7" value="" style="verticalLabelPosition=bottom;html=1;verticalAlign=top;align=center;strokeColor=none;fillColor=#00BEF2;shape=mxgraph.azure.cloud_services_configuration_file;pointerEvents=1;" parent="37" vertex="1">
                    <mxGeometry x="80" y="40" width="50" height="50" as="geometry"/>
                </mxCell>
                <mxCell id="u5nUh0pqHLmzVWJ_fwHD-43" value="" style="group" parent="1" connectable="0" vertex="1">
                    <mxGeometry x="640.0022222222221" y="880" width="122.77777777777777" height="74" as="geometry"/>
                </mxCell>
                <mxCell id="u5nUh0pqHLmzVWJ_fwHD-17" value="Operator" style="rounded=0;whiteSpace=wrap;html=1;" parent="u5nUh0pqHLmzVWJ_fwHD-43" vertex="1">
                    <mxGeometry width="101.33333333333333" height="60" as="geometry"/>
                </mxCell>
                <mxCell id="u5nUh0pqHLmzVWJ_fwHD-42" value="" style="sketch=0;pointerEvents=1;shadow=0;dashed=0;html=1;strokeColor=none;fillColor=#005F4B;labelPosition=center;verticalLabelPosition=bottom;verticalAlign=top;align=center;outlineConnect=0;shape=mxgraph.veeam2.automation;" parent="u5nUh0pqHLmzVWJ_fwHD-43" vertex="1">
                    <mxGeometry x="82.77777777777777" y="34" width="40" height="40" as="geometry"/>
                </mxCell>
                <mxCell id="47" value="" style="group" parent="1" vertex="1" connectable="0">
                    <mxGeometry x="40.00222222222229" y="677" width="126.5577777777778" height="90" as="geometry"/>
                </mxCell>
                <mxCell id="48" value="Source Code" style="rounded=0;whiteSpace=wrap;html=1;" parent="47" vertex="1">
                    <mxGeometry y="1" width="101.33333333333333" height="60" as="geometry"/>
                </mxCell>
                <mxCell id="49" value="" style="verticalLabelPosition=bottom;html=1;verticalAlign=top;align=center;strokeColor=none;fillColor=#00BEF2;shape=mxgraph.azure.code_file;pointerEvents=1;" parent="47" vertex="1">
                    <mxGeometry x="79.05777777777774" y="40" width="47.5" height="50" as="geometry"/>
                </mxCell>
                <mxCell id="u5nUh0pqHLmzVWJ_fwHD-51" style="edgeStyle=none;html=1;entryX=0.25;entryY=1;entryDx=0;entryDy=0;exitX=0.25;exitY=0;exitDx=0;exitDy=0;" parent="1" source="u5nUh0pqHLmzVWJ_fwHD-17" target="u5nUh0pqHLmzVWJ_fwHD-27" edge="1">
                    <mxGeometry relative="1" as="geometry"/>
                </mxCell>
                <mxCell id="u5nUh0pqHLmzVWJ_fwHD-52" value="starts &lt;br&gt;build" style="edgeLabel;html=1;align=center;verticalAlign=middle;resizable=0;points=[];" parent="u5nUh0pqHLmzVWJ_fwHD-51" connectable="0" vertex="1">
                    <mxGeometry x="-0.0989" y="1" relative="1" as="geometry">
                        <mxPoint x="2" y="12" as="offset"/>
                    </mxGeometry>
                </mxCell>
                <mxCell id="u5nUh0pqHLmzVWJ_fwHD-53" style="edgeStyle=none;html=1;entryX=0.75;entryY=1;entryDx=0;entryDy=0;exitX=0.75;exitY=0;exitDx=0;exitDy=0;" parent="1" source="u5nUh0pqHLmzVWJ_fwHD-24" target="u5nUh0pqHLmzVWJ_fwHD-25" edge="1">
                    <mxGeometry relative="1" as="geometry"/>
                </mxCell>
                <mxCell id="u5nUh0pqHLmzVWJ_fwHD-54" value="builds image&lt;br&gt;with dependencies" style="edgeLabel;html=1;align=center;verticalAlign=middle;resizable=0;points=[];" parent="u5nUh0pqHLmzVWJ_fwHD-53" connectable="0" vertex="1">
                    <mxGeometry x="0.1428" relative="1" as="geometry">
                        <mxPoint x="3" as="offset"/>
                    </mxGeometry>
                </mxCell>
                <mxCell id="u5nUh0pqHLmzVWJ_fwHD-55" style="edgeStyle=none;html=1;entryX=0.25;entryY=0;entryDx=0;entryDy=0;exitX=0.25;exitY=1;exitDx=0;exitDy=0;" parent="1" source="u5nUh0pqHLmzVWJ_fwHD-25" target="u5nUh0pqHLmzVWJ_fwHD-24" edge="1">
                    <mxGeometry relative="1" as="geometry"/>
                </mxCell>
                <mxCell id="u5nUh0pqHLmzVWJ_fwHD-56" value="pulls image" style="edgeLabel;html=1;align=center;verticalAlign=middle;resizable=0;points=[];" parent="u5nUh0pqHLmzVWJ_fwHD-55" connectable="0" vertex="1">
                    <mxGeometry x="0.4288" y="-2" relative="1" as="geometry">
                        <mxPoint x="-2" y="2" as="offset"/>
                    </mxGeometry>
                </mxCell>
                <mxCell id="u5nUh0pqHLmzVWJ_fwHD-57" style="edgeStyle=none;html=1;exitX=0.5;exitY=0;exitDx=0;exitDy=0;entryX=0.5;entryY=1;entryDx=0;entryDy=0;" parent="1" source="28" target="38" edge="1">
                    <mxGeometry relative="1" as="geometry">
                        <Array as="points"/>
                        <mxPoint x="540" y="310" as="sourcePoint"/>
                    </mxGeometry>
                </mxCell>
                <mxCell id="65" value="takes" style="edgeLabel;html=1;align=center;verticalAlign=middle;resizable=0;points=[];" parent="u5nUh0pqHLmzVWJ_fwHD-57" connectable="0" vertex="1">
                    <mxGeometry x="-0.4744" relative="1" as="geometry">
                        <mxPoint y="-8" as="offset"/>
                    </mxGeometry>
                </mxCell>
                <mxCell id="56" style="edgeStyle=none;html=1;exitX=1;exitY=0.5;exitDx=0;exitDy=0;entryX=0;entryY=0.75;entryDx=0;entryDy=0;" parent="1" source="28" target="16" edge="1">
                    <mxGeometry relative="1" as="geometry">
                        <Array as="points">
                            <mxPoint x="390" y="910"/>
                            <mxPoint x="390" y="757"/>
                        </Array>
                        <mxPoint x="140" y="900" as="sourcePoint"/>
                        <mxPoint x="450" y="700" as="targetPoint"/>
                    </mxGeometry>
                </mxCell>
                <mxCell id="59" value="uploads&lt;br&gt;data &amp;amp; source code" style="edgeLabel;html=1;align=center;verticalAlign=middle;resizable=0;points=[];" parent="56" connectable="0" vertex="1">
                    <mxGeometry x="-0.2312" y="1" relative="1" as="geometry">
                        <mxPoint x="73" y="-129" as="offset"/>
                    </mxGeometry>
                </mxCell>
                <mxCell id="57" style="edgeStyle=none;html=1;exitX=1;exitY=0.5;exitDx=0;exitDy=0;entryX=0;entryY=0.5;entryDx=0;entryDy=0;" parent="1" source="28" target="69" edge="1">
                    <mxGeometry relative="1" as="geometry">
                        <Array as="points">
                            <mxPoint x="390" y="910"/>
                        </Array>
                        <mxPoint x="620" y="540" as="targetPoint"/>
                    </mxGeometry>
                </mxCell>
                <mxCell id="58" value="patches" style="edgeLabel;html=1;align=center;verticalAlign=middle;resizable=0;points=[];" parent="57" connectable="0" vertex="1">
                    <mxGeometry x="-0.1481" y="-3" relative="1" as="geometry">
                        <mxPoint x="144" y="-13" as="offset"/>
                    </mxGeometry>
                </mxCell>
                <mxCell id="63" value="" style="edgeStyle=none;html=1;dashed=1;" parent="1" edge="1">
                    <mxGeometry relative="1" as="geometry">
                        <mxPoint x="40" y="820" as="sourcePoint"/>
                        <mxPoint x="40" y="610" as="targetPoint"/>
                        <Array as="points">
                            <mxPoint x="-20" y="820"/>
                            <mxPoint x="-20" y="690"/>
                            <mxPoint x="-20" y="610"/>
                        </Array>
                    </mxGeometry>
                </mxCell>
                <mxCell id="66" value="references" style="edgeLabel;html=1;align=center;verticalAlign=middle;resizable=0;points=[];" parent="63" connectable="0" vertex="1">
                    <mxGeometry x="-0.4093" y="-1" relative="1" as="geometry">
                        <mxPoint x="9" y="-100" as="offset"/>
                    </mxGeometry>
                </mxCell>
                <mxCell id="64" style="edgeStyle=none;html=1;dashed=1;exitX=0;exitY=0.25;exitDx=0;exitDy=0;" parent="1" source="38" edge="1">
                    <mxGeometry relative="1" as="geometry">
                        <mxPoint x="40" y="810" as="sourcePoint"/>
                        <mxPoint x="40" y="710" as="targetPoint"/>
                        <Array as="points">
                            <mxPoint y="794"/>
                            <mxPoint y="710"/>
                        </Array>
                    </mxGeometry>
                </mxCell>
                <mxCell id="67" value="references" style="edgeLabel;html=1;align=center;verticalAlign=middle;resizable=0;points=[];" parent="64" connectable="0" vertex="1">
                    <mxGeometry x="-0.3236" y="-2" relative="1" as="geometry">
                        <mxPoint x="8" y="-26" as="offset"/>
                    </mxGeometry>
                </mxCell>
                <mxCell id="u5nUh0pqHLmzVWJ_fwHD-67" style="edgeStyle=none;html=1;exitX=0.5;exitY=0;exitDx=0;exitDy=0;entryX=0.5;entryY=1;entryDx=0;entryDy=0;" parent="1" source="u5nUh0pqHLmzVWJ_fwHD-17" target="u5nUh0pqHLmzVWJ_fwHD-27" edge="1">
                    <mxGeometry relative="1" as="geometry"/>
                </mxCell>
                <mxCell id="u5nUh0pqHLmzVWJ_fwHD-69" value="starts&lt;br&gt;task" style="edgeLabel;html=1;align=center;verticalAlign=middle;resizable=0;points=[];" parent="u5nUh0pqHLmzVWJ_fwHD-67" connectable="0" vertex="1">
                    <mxGeometry x="-0.183" y="-1" relative="1" as="geometry">
                        <mxPoint x="-2" y="-26" as="offset"/>
                    </mxGeometry>
                </mxCell>
                <mxCell id="70" style="edgeStyle=none;html=1;entryX=1;entryY=0.5;entryDx=0;entryDy=0;" parent="1" target="69" edge="1">
                    <mxGeometry relative="1" as="geometry">
                        <Array as="points">
                            <mxPoint x="600" y="910"/>
                        </Array>
                        <mxPoint x="640" y="910" as="sourcePoint"/>
                        <mxPoint x="560.3355555555559" y="909.8499999999999" as="targetPoint"/>
                    </mxGeometry>
                </mxCell>
                <mxCell id="71" value="observes&lt;br&gt;changes" style="edgeLabel;html=1;align=center;verticalAlign=middle;resizable=0;points=[];" parent="70" connectable="0" vertex="1">
                    <mxGeometry x="0.2248" y="1" relative="1" as="geometry">
                        <mxPoint x="18" y="-1" as="offset"/>
                    </mxGeometry>
                </mxCell>
                <mxCell id="u5nUh0pqHLmzVWJ_fwHD-71" style="edgeStyle=none;html=1;entryX=1;entryY=0.5;entryDx=0;entryDy=0;exitX=0;exitY=0.5;exitDx=0;exitDy=0;" parent="1" source="u5nUh0pqHLmzVWJ_fwHD-24" target="16" edge="1">
                    <mxGeometry relative="1" as="geometry">
                        <Array as="points"/>
                        <mxPoint x="620" y="740" as="sourcePoint"/>
                    </mxGeometry>
                </mxCell>
                <mxCell id="u5nUh0pqHLmzVWJ_fwHD-72" value="uploads&lt;br&gt;results" style="edgeLabel;html=1;align=center;verticalAlign=middle;resizable=0;points=[];" parent="u5nUh0pqHLmzVWJ_fwHD-71" connectable="0" vertex="1">
                    <mxGeometry x="-0.2499" relative="1" as="geometry">
                        <mxPoint x="-4" as="offset"/>
                    </mxGeometry>
                </mxCell>
                <mxCell id="72" value="" style="editableCssRules=.*;shape=image;verticalLabelPosition=bottom;labelBackgroundColor=#ffffff;verticalAlign=top;aspect=fixed;imageAspect=0;image=data:image/svg+xml,PHN2ZyB4bWxucz0iaHR0cDovL3d3dy53My5vcmcvMjAwMC9zdmciIHhtbG5zOnY9Imh0dHBzOi8vdmVjdGEuaW8vbmFubyIgd2lkdGg9IjcwMi44NDYzMTM0NzY1NjI1IiBoZWlnaHQ9IjY4MS45NjcxMDIwNTA3ODEyIiB2aWV3Qm94PSIxMC4wMDEwMjYxNTM1NjQ0NTMgMTAuMDAwOTMzNjQ3MTU1NzYyIDcwMi44NDYzMTM0NzY1NjI1IDY4MS45NjcxMDIwNTA3ODEyIj4mI3hhOwk8c3R5bGUgdHlwZT0idGV4dC9jc3MiPiYjeGE7CS5zdDB7ZmlsbDojMzI2Y2U1O30mI3hhOwkuc3Qxe2ZpbGw6I2ZmZjt9JiN4YTsJPC9zdHlsZT4mI3hhOwk8cGF0aCBjbGFzcz0ic3QwIiBkPSJNMzU4Ljk4NyAxMC4wNmMtNi4yMTMuMzEzLTEyLjMwMSAxLjg1NC0xNy45MDYgNC41MzFMOTYuNzM3IDEzMS4zNDJjLTEyLjgxMSA2LjExOC0yMi4xMTYgMTcuNjg5LTI1LjI4MSAzMS40MzhsLTYwLjI4MSAyNjIuMjVjLTIuODEyIDEyLjIwNy0uNTI0IDI1LjAyNCA2LjM0NCAzNS41MzFhNDYuMzUgNDYuMzUgMCAwIDAgMi42NTYgMy42ODhsMTY5LjEyNSAyMTAuMjgxYzguODY4IDExLjAyMiAyMi4zMTMgMTcuNDQgMzYuNTMxIDE3LjQzOGwyNzEuMjE5LS4wNjJjMTQuMjEyLjAxIDI3LjY1Ny02LjM5NiAzNi41MzEtMTcuNDA2bDE2OS4wNjMtMjEwLjMxM2M4Ljg3My0xMS4wMjggMTIuMTk3LTI1LjQ2NCA5LjAzMS0zOS4yMTlsLTYwLjM3NS0yNjIuMjVjLTMuMTY1LTEzLjc0OC0xMi40Ny0yNS4zMTktMjUuMjgxLTMxLjQzN0wzODEuNjQzIDE0LjU5MmMtNy4wNS0zLjM2OC0xNC44NDEtNC45MjYtMjIuNjU2LTQuNTMxeiIvPiYjeGE7CTxwYXRoIGNsYXNzPSJzdDEgc3QyIiBkPSJNMzYxLjQwOCA5OS4zMDhjLTguMDc3LjAwMS0xNC42MjYgNy4yNzYtMTQuNjI1IDE2LjI1IDAgLjEzOC4wMjguMjY5LjAzMS40MDYtLjAxMiAxLjIxOS0uMDcxIDIuNjg4LS4wMzEgMy43NS4xOTMgNS4xNzYgMS4zMjEgOS4xMzcgMiAxMy45MDYgMS4yMyAxMC4yMDcgMi4yNjEgMTguNjY3IDEuNjI1IDI2LjUzMS0uNjE5IDIuOTY1LTIuODAzIDUuNjc3LTQuNzUgNy41NjNsLS4zNDQgNi4xODhjLTguNzc3LjcyNy0xNy42MTIgMi4wNTktMjYuNDM3IDQuMDYzLTM3Ljk3NSA4LjYyMi03MC42NyAyOC4xODMtOTUuNTYyIDU0LjU5NC0xLjYxNS0xLjEwMi00LjQ0MS0zLjEyOS01LjI4MS0zLjc1LTIuNjExLjM1My01LjI1IDEuMTU4LTguNjg3LS44NDQtNi41NDUtNC40MDYtMTIuNTA2LTEwLjQ4Ny0xOS43MTktMTcuODEyLTMuMzA1LTMuNTA0LTUuNjk4LTYuODQxLTkuNjI1LTEwLjIxOS0uODkyLS43NjctMi4yNTMtMS44MDUtMy4yNS0yLjU5NC0zLjA3LTIuNDQ4LTYuNjkxLTMuNzI0LTEwLjE4Ny0zLjg0NC00LjQ5Ni0uMTU0LTguODI0IDEuNjA0LTExLjY1NiA1LjE1Ni01LjAzNSA2LjMxNS0zLjQyMyAxNS45NjggMy41OTQgMjEuNTYzLjA3MS4wNTcuMTQ3LjEwMS4yMTkuMTU2Ljk2NC43ODIgMi4xNDUgMS43ODMgMy4wMzEgMi40MzggNC4xNjcgMy4wNzcgNy45NzMgNC42NTEgMTIuMTI1IDcuMDk0IDguNzQ3IDUuNDAyIDE1Ljk5OCA5Ljg4MSAyMS43NSAxNS4yODEgMi4yNDYgMi4zOTQgMi42MzkgNi42MTMgMi45MzggOC40MzhsNC42ODggNC4xODhjLTI1LjA5MyAzNy43NjQtMzYuNzA3IDg0LjQwOS0yOS44NDQgMTMxLjkzOGwtNi4xMjUgMS43ODFjLTEuNjE0IDIuMDg1LTMuODk1IDUuMzY1LTYuMjgxIDYuMzQ0LTcuNTI1IDIuMzctMTUuOTk0IDMuMjQxLTI2LjIxOSA0LjMxMy00LjguMzk5LTguOTQyLjE2MS0xNC4wMzEgMS4xMjUtMS4xMi4yMTItMi42ODEuNjE5LTMuOTA2LjkwNi0uMDQzLjAwOS0uMDgyLjAyMi0uMTI1LjAzMS0uMDY3LjAxNS0uMTU1LjA0OC0uMjE5LjA2My04LjYyIDIuMDgzLTE0LjE1OCAxMC4wMDYtMTIuMzc1IDE3LjgxM3MxMC4yMDMgMTIuNTU3IDE4Ljg3NSAxMC42ODhjLjA2My0uMDE0LjE1NC0uMDE3LjIxOS0uMDMxLjA5OC0uMDIyLjE4NC0uMDcuMjgxLS4wOTQgMS4yMDktLjI2NSAyLjcyNC0uNTYxIDMuNzgxLS44NDQgNS4wMDMtMS4zNCA4LjYyNy0zLjMwOCAxMy4xMjUtNS4wMzEgOS42NzctMy40NzEgMTcuNjkyLTYuMzcgMjUuNS03LjUgMy4yNjEtLjI1NSA2LjY5NyAyLjAxMiA4LjQwNiAyLjk2OWw2LjM3NS0xLjA5NGMxNC42NyA0NS40ODMgNDUuNDE0IDgyLjI0NSA4NC4zNDQgMTA1LjMxMmwtMi42NTYgNi4zNzVjLjk1NyAyLjQ3NSAyLjAxMyA1LjgyNSAxLjMgOC4yNjktMi44MzkgNy4zNjEtNy43MDEgMTUuMTMxLTEzLjIzOCAyMy43OTMtMi42ODEgNC4wMDItNS40MjUgNy4xMDgtNy44NDQgMTEuNjg4LS41NzkgMS4wOTYtMS4zMTYgMi43NzktMS44NzUgMy45MzgtMy43NTkgOC4wNDItMS4wMDIgMTcuMzA1IDYuMjE5IDIwLjc4MSA3LjI2NiAzLjQ5OCAxNi4yODQtLjE5MSAyMC4xODctOC4yNS4wMDYtLjAxMS4wMjYtLjAyLjAzMS0uMDMxcy0uMDA0LS4wMjMgMC0uMDMxYy41NTYtMS4xNDMgMS4zNDQtMi42NDQgMS44MTMtMy43MTkgMi4wNzItNC43NDcgMi43NjItOC44MTUgNC4yMTktMTMuNDA2IDMuODctOS43MiA1Ljk5Ni0xOS45MTkgMTEuMzIzLTI2LjI3NCAxLjQ1OS0xLjc0IDMuODM3LTIuNDA5IDYuMzAyLTMuMDdsMy4zMTMtNmMzMy45MzggMTMuMDI3IDcxLjkyNyAxNi41MjIgMTA5Ljg3NSA3LjkwNmExODkuNzcgMTg5Ljc3IDAgMCAwIDI1LjA5NC03LjU2MmwzLjEyNSA1LjYyNWMyLjUwNi44MTUgNS4yNCAxLjIzNiA3LjQ2OSA0LjUzMSAzLjk4NSA2LjgwOSA2LjcxMSAxNC44NjQgMTAuMDMxIDI0LjU5NCAxLjQ1NyA0LjU5MSAyLjE3OCA4LjY1OSA0LjI1IDEzLjQwNi40NzIgMS4wODIgMS4yNTYgMi42MDUgMS44MTMgMy43NSAzLjg5NSA4LjA4NSAxMi45NDIgMTEuNzg3IDIwLjIxOSA4LjI4MSA3LjIxOS0zLjQ3OCA5Ljk4LTEyLjc0IDYuMjE5LTIwLjc4MWwtMS45MDYtMy45MzdjLTIuNDE5LTQuNTgtNS4xNjMtNy42NTQtNy44NDQtMTEuNjU2LTUuNTM3LTguNjYyLTEwLjEzLTE1Ljg1OC0xMi45NjktMjMuMjE5LTEuMTg3LTMuNzk3LjItNi4xNTggMS4xMjUtOC42MjUtLjU1NC0uNjM1LTEuNzM5LTQuMjItMi40MzctNS45MDYgNDAuNDU3LTIzLjg4OCA3MC4yOTktNjIuMDIxIDg0LjMxMy0xMDYuMDYyIDEuODkyLjI5NyA1LjE4Mi44NzkgNi4yNSAxLjA5NCAyLjItMS40NTEgNC4yMjItMy4zNDQgOC4xODgtMy4wMzEgNy44MDggMS4xMjkgMTUuODIzIDQuMDMgMjUuNSA3LjUgNC40OTggMS43MjMgOC4xMjIgMy43MjMgMTMuMTI1IDUuMDYzIDEuMDU3LjI4MyAyLjU3Mi41NDcgMy43ODEuODEzLjA5Ny4wMjQuMTgzLjA3MS4yODEuMDk0LjA2NS4wMTUuMTU2LjAxNy4yMTkuMDMxIDguNjcyIDEuODY3IDE3LjA5NC0yLjg3OSAxOC44NzUtMTAuNjg3cy0zLjc1NC0xNS43MzItMTIuMzc1LTE3LjgxMmMtMS4yNTQtLjI4NS0zLjAzMi0uNzY5LTQuMjUtMS01LjA4OS0uOTY0LTkuMjMxLS43MjYtMTQuMDMxLTEuMTI1LTEwLjIyNS0xLjA3MS0xOC42OTMtMS45NDMtMjYuMjE5LTQuMzEyLTMuMDY4LTEuMTktNS4yNTEtNC44NDEtNi4zMTMtNi4zNDRsLTUuOTA2LTEuNzE5YzMuMDYyLTIyLjE1NCAyLjIzNy00NS4yMTEtMy4wNjItNjguMjgxLTUuMzQ4LTIzLjI4NS0xNC44LTQ0LjU4MS0yNy40MDYtNjMuMzQ0bDUuMTg4LTQuNjU2Yy4yMzctMi42MjQuMDMzLTUuMzc2IDIuNzUtOC4yODEgNS43NTEtNS40MDEgMTMuMDAzLTkuODc5IDIxLjc1LTE1LjI4MSA0LjE1Mi0yLjQ0MyA3Ljk5LTQuMDE3IDEyLjE1Ni03LjA5NC45NDItLjY5NiAyLjIyOS0xLjc5OCAzLjIxOS0yLjU5NCA3LjAxNS01LjU5NiA4LjYzMS0xNS4yNDggMy41OTQtMjEuNTYycy0xNC43OTctNi45MDktMjEuODEyLTEuMzEyYy0uOTk5Ljc5MS0yLjM1NCAxLjgyMy0zLjI1IDIuNTk0LTMuOTI3IDMuMzc4LTYuMzUxIDYuNzE0LTkuNjU2IDEwLjIxOS03LjIxMiA3LjMyNi0xMy4xNzQgMTMuNDM4LTE5LjcxOSAxNy44NDQtMi44MzYgMS42NTEtNi45OSAxLjA4LTguODc1Ljk2OWwtNS41NjIgMy45NjljLTMxLjcxOS0zMy4yNjEtNzQuOTA1LTU0LjUyNS0xMjEuNDA2LTU4LjY1NmwtLjM0NC02LjUzMWMtMS45MDQtMS44MjItNC4yMDMtMy4zNzctNC43ODEtNy4zMTItLjYzNi03Ljg2NC40MjYtMTYuMzI1IDEuNjU2LTI2LjUzMS42NzktNC43NjkgMS44MDctOC43MyAyLTEzLjkwNi4wNDQtMS4xNzctLjAyNi0yLjg4NC0uMDMxLTQuMTU2LS4wMDEtOC45NzQtNi41NDgtMTYuMjUxLTE0LjYyNS0xNi4yNXptLTE4LjMxMiAxMTMuNDM4bC00LjM0NCA3Ni43MTktLjMxMi4xNTZjLS4yOTEgNi44NjMtNS45NCAxMi4zNDQtMTIuODc1IDEyLjM0NGExMi44MiAxMi44MiAwIDAgMS03LjU5NC0yLjQ2OWwtLjEyNS4wNjMtNjIuOTA2LTQ0LjU5NGMxOS4zMzQtMTkuMDExIDQ0LjA2My0zMy4wNiA3Mi41NjItMzkuNTMxIDUuMjA2LTEuMTgyIDEwLjQxLTIuMDU5IDE1LjU5NC0yLjY4N3ptMzYuNjU2IDBjMzMuMjczIDQuMDkyIDY0LjA0NSAxOS4xNTkgODcuNjI1IDQyLjI1bC02Mi41IDQ0LjMxMy0uMjE5LS4wOTRhMTIuOTEgMTIuOTEgMCAwIDEtMTcuNjg3LTIuMzc1Yy0xLjc3MS0yLjIyMS0yLjcwMS00LjgzMi0yLjgxMi03LjQ2OWwtLjA2Mi0uMDMxek0yMzIuMTI2IDI4My42Mmw1Ny40MzcgNTEuMzc1LS4wNjIuMzEzYTEyLjg4IDEyLjg4IDAgMCAxIDEuNjI1IDE3Ljc1IDEyLjg5IDEyLjg5IDAgMCAxLTYuNjg3IDQuNDA2bC0uMDYyLjI1LTczLjYyNSAyMS4yNWMtMy43NDctMzQuMjY1IDQuMzI5LTY3LjU3NCAyMS4zNzUtOTUuMzQ0em0yNTguMTU2LjAzMWM4LjUzNCAxMy44MzMgMTQuOTk3IDI5LjI4MiAxOC44NDQgNDYuMDMxIDMuODAxIDE2LjU0OCA0Ljc1NSAzMy4wNjcgMy4xODggNDkuMDMxbC03NC0yMS4zMTItLjA2Mi0uMzEyYy02LjYyNy0xLjgxMS0xMC42OTktOC41NTItOS4xNTYtMTUuMzEyLjYzMi0yLjc3IDIuMTAyLTUuMTEzIDQuMDk0LTYuODQ0bC0uMDMxLS4xNTYgNTcuMTI1LTUxLjEyNXptLTE0MC42NTYgNTUuMzEzaDIzLjUzMWwxNC42MjUgMTguMjgxLTUuMjUgMjIuODEzLTIxLjEyNSAxMC4xNTYtMjEuMTg3LTEwLjE4Ny01LjI1LTIyLjgxMnptNzUuNDM4IDYyLjU2M2ExMi44MyAxMi44MyAwIDAgMSAyLjk2OS4yMTlsLjEyNS0uMTU2IDc2LjE1NiAxMi44NzVjLTExLjE0NiAzMS4zMTMtMzIuNDczIDU4LjQ0LTYwLjk2OSA3Ni41OTRsLTI5LjU2Mi03MS40MDYuMDk0LS4xMjVjLTIuNzE2LTYuMzEuMDAyLTEzLjcxIDYuMjUtMTYuNzE5IDEuNi0uNzcgMy4yNzEtMS4xOTcgNC45MzgtMS4yODF6bS0xMjcuOTA2LjMxM2ExMi45IDEyLjkgMCAwIDEgMTIuMzc1IDEwLjAzMSAxMi43NyAxMi43NyAwIDAgMS0uNzE5IDcuOTM4bC4yMTkuMjgxLTI5LjI1IDcwLjY4OGMtMjcuMzQ3LTE3LjU0OS00OS4xMjktNDMuODI0LTYwLjc4MS03Ni4wNjJsNzUuNS0xMi44MTIuMTI1LjE1NmMuODQ1LS4xNTUgMS43MDEtLjIzIDIuNTMxLS4yMTl6bTYzLjc4MSAzMC45NjljMi4wMjQtLjA3NCA0LjA3OS4zNDEgNi4wMzEgMS4yODEgMi41NiAxLjIzMyA0LjUzNyAzLjE3MyA1Ljc4MSA1LjVoLjI4MWwzNy4yMTkgNjcuMjVjLTQuODMgMS42MTktOS43OTYgMy4wMDMtMTQuODc1IDQuMTU2LTI4LjQ2NSA2LjQ2My01Ni44MzkgNC41MDUtODIuNTMxLTQuMjVsMzcuMTI1LTY3LjEyNWguMDYzYTEyLjkxIDEyLjkxIDAgMCAxIDEwLjkwNi02LjgxMnoiIHN0cm9rZT0ibm9uZSIgc3Ryb2tlLXdpZHRoPSIuMjUiLz4mI3hhOzwvc3ZnPg==;fontColor=default;" parent="1" vertex="1">
                    <mxGeometry x="762.78" y="931.1500000000001" width="83" height="78.85" as="geometry"/>
                </mxCell>
                <mxCell id="u5nUh0pqHLmzVWJ_fwHD-81" style="edgeStyle=none;html=1;entryX=0.5;entryY=0.5;entryDx=0;entryDy=0;entryPerimeter=0;exitX=0;exitY=0.25;exitDx=0;exitDy=0;" parent="1" source="16" target="3" edge="1">
                    <mxGeometry relative="1" as="geometry">
                        <Array as="points">
                            <mxPoint x="370" y="727"/>
                        </Array>
                        <mxPoint x="310" y="727" as="targetPoint"/>
                        <mxPoint x="450" y="670" as="sourcePoint"/>
                    </mxGeometry>
                </mxCell>
                <mxCell id="u5nUh0pqHLmzVWJ_fwHD-82" value="pulls results" style="edgeLabel;html=1;align=center;verticalAlign=middle;resizable=0;points=[];" parent="u5nUh0pqHLmzVWJ_fwHD-81" connectable="0" vertex="1">
                    <mxGeometry x="0.392" y="1" relative="1" as="geometry">
                        <mxPoint x="54" y="-15" as="offset"/>
                    </mxGeometry>
                </mxCell>
                <mxCell id="75" value="" style="group" parent="1" vertex="1" connectable="0">
                    <mxGeometry x="448.00222222222214" y="880.85" width="129.11777777777786" height="84" as="geometry"/>
                </mxCell>
                <mxCell id="68" value="" style="group" parent="75" connectable="0" vertex="1">
                    <mxGeometry width="129.1177777777778" height="84" as="geometry"/>
                </mxCell>
                <mxCell id="69" value="CRD" style="rounded=0;whiteSpace=wrap;html=1;" parent="68" vertex="1">
                    <mxGeometry y="-1" width="101.33333333333333" height="60" as="geometry"/>
                </mxCell>
                <mxCell id="u5nUh0pqHLmzVWJ_fwHD-11" value="" style="sketch=0;html=1;dashed=0;whitespace=wrap;fillColor=#2875E2;strokeColor=#ffffff;points=[[0.005,0.63,0],[0.1,0.2,0],[0.9,0.2,0],[0.5,0,0],[0.995,0.63,0],[0.72,0.99,0],[0.5,1,0],[0.28,0.99,0]];verticalLabelPosition=bottom;align=center;verticalAlign=top;shape=mxgraph.kubernetes.icon;prIcon=crd" parent="75" vertex="1">
                    <mxGeometry x="79.11777777777786" y="36" width="50" height="48" as="geometry"/>
                </mxCell>
            </root>
        </mxGraphModel>
    </diagram>
</mxfile>